<svg xmlns="http://www.w3.org/2000/svg" viewBox="0 0 37 37" shape-rendering="crispEdges" role="img" aria-label="QR code for qrfreely.com">
  <rect width="37" height="37" fill="#fffdf8"/>
  <path fill="#141414" d="M4 4h7v1h-7ZM14 4h2v1h-2ZM17 4h2v1h-2ZM22 4h1v1h-1ZM24 4h1v1h-1ZM26 4h7v1h-7ZM4 5h1v1h-1ZM10 5h1v1h-1ZM13 5h2v1h-2ZM16 5h1v1h-1ZM18 5h1v1h-1ZM20 5h1v1h-1ZM22 5h3v1h-3ZM26 5h1v1h-1ZM32 5h1v1h-1ZM4 6h1v1h-1ZM6 6h3v1h-3ZM10 6h1v1h-1ZM14 6h1v1h-1ZM16 6h1v1h-1ZM18 6h2v1h-2ZM24 6h1v1h-1ZM26 6h1v1h-1ZM28 6h3v1h-3ZM32 6h1v1h-1ZM4 7h1v1h-1ZM6 7h3v1h-3ZM10 7h1v1h-1ZM13 7h4v1h-4ZM18 7h1v1h-1ZM20 7h2v1h-2ZM23 7h1v1h-1ZM26 7h1v1h-1ZM28 7h3v1h-3ZM32 7h1v1h-1ZM4 8h1v1h-1ZM6 8h3v1h-3ZM10 8h1v1h-1ZM12 8h2v1h-2ZM15 8h1v1h-1ZM18 8h1v1h-1ZM20 8h4v1h-4ZM26 8h1v1h-1ZM28 8h3v1h-3ZM32 8h1v1h-1ZM4 9h1v1h-1ZM10 9h1v1h-1ZM16 9h4v1h-4ZM23 9h1v1h-1ZM26 9h1v1h-1ZM32 9h1v1h-1ZM4 10h7v1h-7ZM12 10h1v1h-1ZM14 10h1v1h-1ZM16 10h1v1h-1ZM18 10h1v1h-1ZM20 10h1v1h-1ZM22 10h1v1h-1ZM24 10h1v1h-1ZM26 10h7v1h-7ZM12 11h3v1h-3ZM17 11h1v1h-1ZM19 11h6v1h-6ZM6 12h2v1h-2ZM10 12h3v1h-3ZM15 12h1v1h-1ZM19 12h1v1h-1ZM23 12h4v1h-4ZM28 12h1v1h-1ZM6 13h1v1h-1ZM9 13h1v1h-1ZM13 13h3v1h-3ZM17 13h2v1h-2ZM25 13h5v1h-5ZM32 13h1v1h-1ZM4 14h3v1h-3ZM8 14h5v1h-5ZM15 14h1v1h-1ZM18 14h3v1h-3ZM22 14h1v1h-1ZM26 14h1v1h-1ZM28 14h4v1h-4ZM4 15h3v1h-3ZM11 15h2v1h-2ZM14 15h3v1h-3ZM18 15h3v1h-3ZM23 15h1v1h-1ZM32 15h1v1h-1ZM7 16h2v1h-2ZM10 16h1v1h-1ZM12 16h3v1h-3ZM16 16h1v1h-1ZM18 16h2v1h-2ZM21 16h2v1h-2ZM24 16h2v1h-2ZM27 16h1v1h-1ZM30 16h3v1h-3ZM9 17h1v1h-1ZM11 17h1v1h-1ZM13 17h1v1h-1ZM16 17h1v1h-1ZM19 17h5v1h-5ZM26 17h2v1h-2ZM29 17h2v1h-2ZM32 17h1v1h-1ZM6 18h3v1h-3ZM10 18h1v1h-1ZM15 18h2v1h-2ZM19 18h1v1h-1ZM22 18h4v1h-4ZM27 18h3v1h-3ZM31 18h2v1h-2ZM4 19h1v1h-1ZM7 19h1v1h-1ZM9 19h1v1h-1ZM12 19h1v1h-1ZM14 19h1v1h-1ZM17 19h2v1h-2ZM20 19h2v1h-2ZM26 19h1v1h-1ZM28 19h2v1h-2ZM5 20h2v1h-2ZM9 20h2v1h-2ZM12 20h3v1h-3ZM16 20h1v1h-1ZM18 20h1v1h-1ZM24 20h2v1h-2ZM27 20h3v1h-3ZM31 20h1v1h-1ZM5 21h3v1h-3ZM13 21h2v1h-2ZM16 21h5v1h-5ZM22 21h3v1h-3ZM27 21h1v1h-1ZM30 21h1v1h-1ZM4 22h1v1h-1ZM6 22h6v1h-6ZM14 22h2v1h-2ZM17 22h1v1h-1ZM19 22h1v1h-1ZM23 22h1v1h-1ZM26 22h1v1h-1ZM7 23h1v1h-1ZM13 23h1v1h-1ZM15 23h1v1h-1ZM19 23h5v1h-5ZM25 23h2v1h-2ZM28 23h3v1h-3ZM5 24h1v1h-1ZM7 24h1v1h-1ZM10 24h1v1h-1ZM15 24h3v1h-3ZM19 24h4v1h-4ZM24 24h5v1h-5ZM30 24h3v1h-3ZM12 25h2v1h-2ZM15 25h2v1h-2ZM19 25h1v1h-1ZM21 25h4v1h-4ZM28 25h2v1h-2ZM31 25h2v1h-2ZM4 26h7v1h-7ZM12 26h1v1h-1ZM14 26h5v1h-5ZM20 26h5v1h-5ZM26 26h1v1h-1ZM28 26h1v1h-1ZM30 26h2v1h-2ZM4 27h1v1h-1ZM10 27h1v1h-1ZM13 27h1v1h-1ZM16 27h1v1h-1ZM19 27h2v1h-2ZM22 27h1v1h-1ZM24 27h1v1h-1ZM28 27h1v1h-1ZM4 28h1v1h-1ZM6 28h3v1h-3ZM10 28h1v1h-1ZM14 28h1v1h-1ZM17 28h2v1h-2ZM22 28h1v1h-1ZM24 28h8v1h-8ZM4 29h1v1h-1ZM6 29h3v1h-3ZM10 29h1v1h-1ZM12 29h1v1h-1ZM16 29h1v1h-1ZM21 29h1v1h-1ZM23 29h1v1h-1ZM28 29h1v1h-1ZM31 29h1v1h-1ZM4 30h1v1h-1ZM6 30h3v1h-3ZM10 30h1v1h-1ZM12 30h3v1h-3ZM17 30h1v1h-1ZM19 30h2v1h-2ZM24 30h1v1h-1ZM27 30h1v1h-1ZM32 30h1v1h-1ZM4 31h1v1h-1ZM10 31h1v1h-1ZM13 31h3v1h-3ZM18 31h1v1h-1ZM20 31h1v1h-1ZM22 31h1v1h-1ZM26 31h1v1h-1ZM28 31h1v1h-1ZM31 31h1v1h-1ZM4 32h7v1h-7ZM13 32h2v1h-2ZM18 32h1v1h-1ZM20 32h1v1h-1ZM24 32h2v1h-2ZM27 32h1v1h-1ZM31 32h1v1h-1Z"/>
</svg>
